<svg fill="none" xmlns="http://www.w3.org/2000/svg" viewBox="0 0 785 317"><path d="M465.4 103.2c-1.5 0-2.6.2-3.2.5-.7.2-1.2.7-1.4 1.4a11 11 0 00-.4 3.3v31c0 1.4.1 2.3.3 3 .2.5.6 1 1 1.1.6.2 1.4.3 2.6.3h3a9 9 0 007.1-3.7c2-2.5 3.4-5.8 4-10h1.4l-.2 5.5c0 3.9.2 7.1.4 9.6l-14-.2-19.9.2V144c1.3 0 2.3-.2 3-.5.6-.2 1-.7 1.3-1.4.2-.7.3-1.8.3-3.3v-30.4a12 12 0 00-.3-3.3c-.3-.7-.7-1.2-1.3-1.4-.7-.3-1.7-.5-3-.5v-1.3a183.9 183.9 0 0019.3 0v1.3zM494.6 116.8c-1 1.8-1.5 4.6-1.8 8.4h9.6c.1-3.2-.2-5.9-1-8-.6-2.1-1.7-3.2-3.1-3.2-1.5 0-2.7 1-3.7 2.8zm14.3 19.4l1.1.3c-.8 2.7-2.3 5-4.4 6.8a11.4 11.4 0 01-7.8 2.8c-4.4 0-7.8-1.4-10.3-4.1-2.6-2.8-3.9-6.9-3.9-12.2 0-5.5 1.4-9.8 4.1-12.7 2.8-2.9 6.4-4.3 11-4.3 7.6 0 11.4 4.5 11.4 13.5H493v3c0 2.6.4 4.8 1.1 6.6a8.5 8.5 0 003 4c1.1.8 2.4 1.2 3.8 1.2 3.4 0 6-1.7 8.1-5zM530 113.3c1.4.4 2.4.9 3 1.4.5.2.8.4 1.2.4.3 0 .6-.2.9-.6.3-.4.4-1 .5-1.7h1.3c-.2 2.1-.2 5.7-.2 10.8h-1.3c-.4-2.7-1.2-5-2.4-6.8a6.2 6.2 0 00-5.5-2.7c-1.2 0-2.2.4-3 1-.8.7-1.2 1.7-1.2 3a5 5 0 001.4 3.5c1 1 2.4 2.2 4.4 3.6l1.8 1.3c2.5 1.9 4.3 3.6 5.5 5a8.5 8.5 0 011.8 5.5c0 1.8-.5 3.4-1.6 4.8a9.9 9.9 0 01-4.2 3.2 14.9 14.9 0 01-11.5-.2l-2.8-1.3c-.4-.1-.8 0-1.1.4-.3.4-.5 1-.7 1.8H515c.2-2.4.3-6.4.3-12.3h1.2c.9 7.5 3.6 11.3 8.3 11.3 1.2 0 2.2-.4 3-1 .9-.8 1.3-1.9 1.3-3.4a6 6 0 00-.8-3 9.4 9.4 0 00-2-2.4c-.7-.7-1.8-1.7-3.4-2.9a76 76 0 01-4.2-3.5c-1-1-1.8-2-2.4-3.2-.7-1.2-1-2.6-1-4.1 0-2.6 1-4.7 3-6.2s4.5-2.2 7.5-2.2c1.5 0 3 .2 4.3.5zM445 160.7c-.8.4-1.5 1.1-1.8 2.2-.3 1-.5 2.7-.5 5v46c0 2.3.2 4 .5 5s1 1.8 2 2.1c.9.4 2.4.7 4.4.8v1.8a285.4 285.4 0 00-29.1 0v-1.8c2.2-.1 3.8-.4 4.8-.8 1-.3 1.7-1 2.1-2 .4-1.1.6-2.8.6-5.2v-48.4l-22.3 58.3h-1.5l-25-59.6v44.4c0 3.6.2 6.3.6 8 .3 1.7 1.1 2.9 2.4 3.7a15 15 0 006 1.6v1.8a137.8 137.8 0 00-18 0v-1.8c2-.3 3.5-.9 4.4-1.6 1-.7 1.6-2 2-3.5.3-1.6.5-4 .5-7.1v-41.7c0-2.3-.2-4-.5-5-.4-1.1-1-1.8-2-2.2a16 16 0 00-4.4-.7V158a328.7 328.7 0 0022.7 0l18.6 45 17-44.7h6.6c6.3 0 11.1 0 14.5-.3v1.9c-2 .1-3.6.4-4.5.7zM498.6 175.8v1.9a7 7 0 00-3.4 2.3c-1 1.2-2 3-3 5.6l-16.5 46.5a15.4 15.4 0 01-4 6.6c-1.9 1.5-4.5 2.3-8.1 2.3-2.6 0-5-.6-7-1.9a6 6 0 01-3.1-5.5c0-1.9.7-3.4 2-4.6a8 8 0 015.4-1.7c2.1 0 3.8.5 5 1.6 1.3 1 2 2.4 2 4.3 0 1.3-.5 2.4-1.3 3.5-.8 1-1.9 2-3.4 2.5h2.1c3.9 0 6.7-2.4 8.5-7.2l1.4-4.5-19.6-44.6c-1-2-2-3.5-2.8-4.1-1-.7-2-1-2.9-1v-2a140.4 140.4 0 0025.5 0v2c-2 0-3.4 0-4.4.4-1 .2-1.4 1-1.4 2.1 0 .7.2 1.6.6 2.6l11.3 27.3 6.4-17.7c1-3 1.5-5.4 1.5-7.4 0-4.5-2.3-7-6.8-7.4v-1.9a140.9 140.9 0 0016 0M525.1 175.4c2 .6 3.5 1.2 4.5 2a3 3 0 001.7.6c.6 0 1-.3 1.4-.9.4-.5.7-1.4.8-2.5h2c-.3 3.1-.4 8.6-.4 16.3h-2c-.5-4-1.7-7.5-3.6-10.2a9.3 9.3 0 00-8.2-4.2c-1.8 0-3.4.6-4.6 1.6a5.5 5.5 0 00-1.8 4.4c0 2 .7 3.9 2.2 5.4 1.4 1.5 3.6 3.3 6.6 5.5l2.7 2a48 48 0 018.3 7.5c1.8 2.2 2.7 5 2.7 8.3 0 2.7-.8 5.2-2.4 7.2a15 15 0 01-6.3 4.9 22.5 22.5 0 01-17.5-.3 46 46 0 00-4.2-2c-.6-.1-1.2 0-1.6.6-.5.6-.9 1.5-1.1 2.7h-2c.3-3.5.4-9.7.4-18.5h2c1.2 11.3 5.4 17 12.4 17 1.8 0 3.4-.5 4.6-1.6 1.3-1.1 2-2.8 2-5 0-1.7-.5-3.2-1.2-4.6-.8-1.4-1.8-2.6-3-3.6l-5.2-4.4c-2.8-2.2-5-4-6.4-5.3-1.4-1.4-2.6-3-3.7-4.8-1-1.9-1.5-4-1.5-6.2 0-4 1.6-7 4.6-9.4 3.1-2.3 6.9-3.4 11.3-3.4 2.4 0 4.5.3 6.5.9zM561.8 175.8h11v1.9h-11V215c0 1.9.4 3.2 1 4 .6.7 1.7 1.1 3.1 1.1 2.6 0 4.7-1.8 6.3-5.5l1.6.8c-2.4 6.3-6.6 9.5-12.7 9.5-4 0-7.2-1-9.3-3.1a10 10 0 01-2.6-4.9c-.5-2-.7-4.6-.7-8v-31.2h-7.8v-1.9h7.8v-12.2c5.1 0 9.6-1 13.3-3v15.2zM593 180.6a33 33 0 00-2.7 12.7h14.5c.2-4.9-.3-9-1.4-12-1-3.3-2.7-4.9-4.8-4.9-2.3 0-4.1 1.4-5.6 4.2zm-2.9-33.8a6.2 6.2 0 014.4 2.2c.8.9 1.3 1.7 1.8 2.7l1.9 4.3a98 98 0 005.2 11.4l-1 .8a89.2 89.2 0 00-9.9-7.8 84 84 0 01-5.8-5 6.2 6.2 0 01-1.4-3.7c0-1.5.6-2.7 1.7-3.7.9-.8 1.9-1.2 3.1-1.2zm24.5 63.1l1.7.6a22 22 0 01-6.6 10.2 17.3 17.3 0 01-11.9 4.2c-6.5 0-11.7-2-15.6-6.2-3.8-4.2-5.8-10.3-5.8-18.5 0-8.3 2.1-14.7 6.2-19 4.2-4.5 9.7-6.7 16.5-6.7 11.6 0 17.4 6.9 17.4 20.5h-26v4.4c0 4 .5 7.5 1.6 10.2a13 13 0 004.5 5.9c1.8 1.2 3.7 1.8 5.8 1.8 5 0 9.2-2.4 12.2-7.4M659.4 177a9 9 0 012.1 6 8 8 0 01-2 5.6 6.8 6.8 0 01-5.2 2.2c-2 0-3.7-.6-5-1.6a5.4 5.4 0 01-1.8-4.3c0-3 1.3-5.4 4-7.2a5 5 0 00-1-.1l-1.5.1c-2.4.4-4.4 1.8-6 4.3-1.6 2.5-2.5 5-2.5 7.6V214c0 2.8.7 4.8 2.1 6 1.4 1 3.6 1.6 6.6 1.6v2l-2-.2a546 546 0 00-12.7-.2 500.8 500.8 0 00-13.2.3v-2c2.2 0 3.8-.4 4.6-1.3.9-1 1.3-2.7 1.3-5.3V186c0-2.9-.4-5-1.3-6.2-.8-1.3-2.4-2-4.6-2v-1.9a61.8 61.8 0 0019.3-1v8.6c1.1-2.7 2.8-4.8 5-6.4 2.3-1.7 4.8-2.5 7.5-2.5 2.8 0 4.9.8 6.3 2.5zM681 180.6a33 33 0 00-2.7 12.7h14.5c.1-4.9-.3-9-1.4-12-1.1-3.3-2.7-4.9-4.9-4.9s-4 1.4-5.5 4.2zm21.6 29.3l1.7.6a22 22 0 01-6.6 10.2 17.3 17.3 0 01-12 4.2c-6.5 0-11.6-2-15.5-6.2-3.9-4.2-5.8-10.3-5.8-18.5 0-8.3 2-14.7 6.2-19 4.1-4.5 9.6-6.7 16.5-6.7 11.6 0 17.4 6.9 17.4 20.5h-26l-.1 4.4c0 4 .6 7.5 1.7 10.2a13 13 0 004.4 5.9c1.9 1.2 3.8 1.8 6 1.8 5 0 9-2.4 12.1-7.4zM734.6 175.4c2 .6 3.5 1.2 4.6 2a3 3 0 001.6.6c.6 0 1-.3 1.5-.9.4-.5.6-1.4.7-2.5h2c-.3 3.1-.4 8.6-.4 16.3h-2c-.5-4-1.7-7.5-3.6-10.2a9.3 9.3 0 00-8.2-4.2c-1.8 0-3.3.6-4.5 1.6a5.5 5.5 0 00-1.8 4.4c0 2 .7 3.9 2 5.4 1.5 1.5 3.7 3.3 6.7 5.5l2.7 2a48 48 0 018.3 7.5c1.8 2.2 2.7 5 2.7 8.3 0 2.7-.8 5.2-2.3 7.2a15 15 0 01-6.4 4.9 22.5 22.5 0 01-17.4-.3 46 46 0 00-4.3-2c-.6-.1-1.2 0-1.6.6-.5.6-.8 1.5-1 2.7h-2c.2-3.5.3-9.7.3-18.5h2c1.2 11.3 5.4 17 12.5 17 1.8 0 3.3-.5 4.6-1.6 1.2-1.1 1.8-2.8 1.8-5 0-1.7-.3-3.2-1.1-4.6-.8-1.4-1.8-2.6-3-3.6l-5.2-4.4c-2.8-2.2-4.9-4-6.3-5.3-1.5-1.4-2.7-3-3.7-4.8-1-1.9-1.6-4-1.6-6.2 0-4 1.6-7 4.7-9.4 3-2.3 6.8-3.4 11.3-3.4 2.3 0 4.5.3 6.4.9zM392.4 298c1.3-1.1 2-2.7 2.3-4.8v-26.1a6.3 6.3 0 00-5.5-2.5c-2.6 0-4.6 1.5-6 4.5-1.5 3-2.2 7.6-2.2 13.6s.6 10.4 1.8 13.1c1.2 2.7 3 4 5.2 4 1.7 0 3.1-.5 4.4-1.7zm14 .8c.8 1 2 1.6 3.8 1.6v1.5a47.9 47.9 0 00-15.5.9v-6.4a9.6 9.6 0 01-9.7 6.7c-4.7 0-8.4-1.7-11.2-5.1-2.7-3.5-4-8.6-4-15.5 0-4.3.7-8 2-11a15.3 15.3 0 0114.6-9.1c3.6 0 6.4 1 8.3 2.8v-12.7c0-2.3-.4-4-1.1-5-.7-1-2-1.5-3.7-1.5v-1.6a49.7 49.7 0 0015.5-.8v50.2c0 2.3.4 4 1 5M427.7 267.3a26.6 26.6 0 00-2.2 10.2h11.7c.1-3.9-.3-7.1-1.1-9.7-.9-2.6-2.2-3.8-4-3.8-1.7 0-3.2 1-4.4 3.3zm17.4 23.7l1.4.4c-1 3.3-2.8 6-5.4 8.3a14 14 0 01-9.5 3.4c-5.3 0-9.5-1.7-12.6-5-3.1-3.4-4.7-8.4-4.7-15 0-6.7 1.7-11.8 5-15.4 3.3-3.5 7.8-5.3 13.3-5.3 9.4 0 14 5.5 14 16.6h-21v3.5c0 3.3.4 6 1.4 8.2.9 2.2 2 3.8 3.5 4.8s3.1 1.4 4.8 1.4c4 0 7.4-2 9.8-6M502 287.2c0-3.9-1-6.9-2.9-9-2-2-5.1-3-9.4-3h-3.1v19c0 1.7 0 3 .3 3.9.3.8.8 1.4 1.5 1.7.7.3 1.8.5 3.3.5 7 0 10.4-4.3 10.4-13zm-13.8-36c-.6.3-1 1-1.3 1.9-.2.9-.3 2.2-.3 4V274h3.2c3.2 0 5.5-1.1 6.8-3.4 1.3-2.2 2-5.1 2-8.8 0-3.7-.7-6.5-1.8-8.4-1.2-1.8-3-2.7-5.6-2.7-1.4 0-2.3.1-3 .5zm21.7 27.5c3 2.5 4.6 5.5 4.6 8.8 0 4.7-1.8 8.2-5.5 10.8A26.3 26.3 0 01494 302h-3.7a323.2 323.2 0 00-21.1 0v-1.5a13 13 0 003.6-.6c.8-.3 1.3-.8 1.6-1.7.3-.8.4-2.2.4-4V257c0-1.9-.1-3.3-.4-4.1-.3-.9-.8-1.4-1.6-1.7-.8-.3-2-.5-3.6-.6v-1.5l11.3.2h8.3l3.5-.1c6 0 10.5 1 13.7 3.2 3.1 2.1 4.7 5 4.7 8.5 0 2.9-1.3 5.5-3.8 8a20.7 20.7 0 01-11.1 5.1v.2c6.4.5 11.2 2 14.2 4.4zM532.7 268.5a40 40 0 00-2 14.3c0 6.3.7 11 2 14.1 1.2 3.1 3 4.7 5 4.7 2.3 0 4-1.6 5.2-4.6 1.3-3 1.9-7.8 1.9-14.2 0-6.5-.6-11.2-2-14.3-1.2-3-2.9-4.6-5-4.6-2.2 0-3.9 1.5-5.1 4.6zm18.5-1.2c3.2 3.2 4.9 8.4 4.9 15.5 0 7-1.7 12.2-4.9 15.4a18.2 18.2 0 01-13.4 4.9c-5.7 0-10.2-1.6-13.4-4.9-3.3-3.2-5-8.4-5-15.4 0-7.1 1.7-12.3 5-15.5 3.2-3.3 7.7-5 13.4-5a18 18 0 0113.4 5M597.9 293.9c0 2.3.3 4 1 5 .8 1 2 1.6 3.7 1.6v1.5a47.5 47.5 0 00-15.5.8v-6.7c-2.3 4.7-6.3 7-12 7-3.7 0-6.5-1-8.1-3a9 9 0 01-1.8-3.6 26 26 0 01-.6-6v-19c0-2.2-.3-3.9-1-5-.8-1-2-1.5-3.7-1.5v-1.6a48.4 48.4 0 0015.5-.8v31c0 2 .3 3.6 1 4.6.5 1 1.7 1.6 3.5 1.6 2 0 3.7-.8 5-2.5a9.2 9.2 0 002.2-6.2v-19.5c0-2.3-.4-4-1-5-.8-1-2-1.6-3.8-1.6v-1.6a50 50 0 0015.6-.8V294zM636.7 264.4c1.1 1.3 1.7 3 1.7 4.9 0 1.8-.6 3.3-1.6 4.5a5.4 5.4 0 01-4.2 1.7c-1.7 0-3-.4-4-1.3-1-.8-1.6-2-1.6-3.4 0-2.4 1.1-4.4 3.3-5.9a4 4 0 00-.9 0l-1.2.1c-1.9.3-3.5 1.4-4.8 3.4-1.3 2-2 4-2 6.2v19.7c0 2.3.6 4 1.7 4.8 1.1 1 3 1.4 5.4 1.4v1.5h-1.8a427.8 427.8 0 00-19.3 0H606v-1.5c1.8 0 3-.4 3.7-1.2.7-.8 1-2.2 1-4.2v-23.5c0-2.3-.3-4-1-5s-1.9-1.6-3.7-1.6v-1.6a49.6 49.6 0 0015.5-.8v7c1-2.2 2.4-4 4.1-5.2a10 10 0 016-2c2.3 0 4 .7 5.2 2zM659.2 282.4c.7-1.6 1-4.3 1-8.1 0-3.9-.3-6.6-1-8.2-.8-1.6-1.8-2.4-3.2-2.4-1.4 0-2.5.8-3.2 2.4-.7 1.6-1 4.3-1 8.2 0 3.8.3 6.5 1 8 .7 1.7 1.8 2.5 3.2 2.5 1.4 0 2.4-.8 3.2-2.4zm14.4-12.8c-.7-.7-1-1.6-1-2.9 0-1.2.3-2.4.9-3.6a12 12 0 00-3 1.6c-.8.7-1.4 1.4-2 2.4 1.6 1.8 2.3 4.2 2.3 7.2 0 3.9-1.3 6.8-4 8.8-2.7 2-6.3 3-10.8 3h-1.3c-2 1.2-3.1 2.5-3.1 4 0 1.6 1 2.4 3 2.4h8.1c4.4 0 7.9.8 10.5 2.4 2.6 1.6 4 4 4 7.4a11 11 0 01-2.5 7c-1.6 2-4 3.6-7.4 4.9a34.3 34.3 0 01-12 1.9c-4.9 0-8.7-.7-11.7-1.9-2.9-1.2-4.3-3-4.3-5.2 0-1.6.7-3 2-4.2a15 15 0 016.3-2.9l.6 1.2c-1.8 1.5-2.7 3.3-2.7 5.2 0 2 1 3.7 2.9 4.8 1.9 1.1 4.5 1.7 7.8 1.7 3.5 0 6.3-.7 8.5-2.1a6.6 6.6 0 003.2-5.9c0-1.6-.6-3-1.8-3.9-1.2-1-3.3-1.4-6.4-1.4h-4.6c-3.2 0-5.7-.5-7.5-1.6a5.3 5.3 0 01-2.7-4.9c0-1.8.7-3.5 2-5 1.3-1.4 3.2-2.8 5.9-4.1-3.6-.4-6.4-1.6-8.5-3.6-2.1-2-3.2-4.6-3.2-8 0-4 1.4-7 4.1-9 2.7-2 6.3-3 10.8-3 5 0 8.8 1.3 11.4 3.6 1-1.3 2.1-2.4 3.5-3.2a8.5 8.5 0 014.3-1.2c1.5 0 2.7.4 3.5 1.3.9.9 1.3 2 1.3 3.4s-.4 2.5-1.1 3.2c-.8.8-1.7 1.2-2.8 1.2-1 0-1.8-.3-2.5-1M695.2 267.3a26.6 26.6 0 00-2.2 10.2h11.7c.1-3.9-.3-7.1-1.1-9.7-.9-2.6-2.2-3.8-4-3.8-1.7 0-3.2 1-4.4 3.3zm17.4 23.7l1.4.4c-1 3.3-2.8 6-5.3 8.3a14 14 0 01-9.6 3.4c-5.3 0-9.5-1.7-12.6-5-3.1-3.4-4.7-8.4-4.7-15 0-6.7 1.7-11.8 5-15.4 3.4-3.5 7.8-5.3 13.3-5.3 9.4 0 14 5.5 14 16.6h-21v3.5c0 3.3.4 6 1.4 8.2.9 2.2 2 3.8 3.6 4.8 1.4 1 3 1.4 4.7 1.4 4 0 7.4-2 9.8-6M738.5 263.1c1.6.5 2.8 1 3.6 1.6.5.4 1 .5 1.4.5.4 0 .8-.2 1.1-.7.4-.5.6-1.1.7-2h1.5c-.2 2.5-.3 6.9-.3 13.1H745a19 19 0 00-3-8.2 7.5 7.5 0 00-6.6-3.4c-1.5 0-2.7.5-3.7 1.3s-1.4 2-1.4 3.5c0 1.7.5 3.2 1.7 4.4 1.1 1.2 3 2.7 5.4 4.4l2.1 1.6c3 2.3 5.3 4.3 6.7 6.1 1.5 1.8 2.2 4 2.2 6.7 0 2.2-.6 4.2-1.9 5.8a12 12 0 01-5.1 4 18.2 18.2 0 01-14.1-.3l-3.5-1.6c-.5-.1-.9 0-1.3.5-.3.5-.6 1.2-.8 2.1H720c.2-2.8.3-7.8.3-14.9h1.6c1 9.2 4.3 13.8 10 13.8 1.5 0 2.7-.5 3.7-1.4 1-.8 1.6-2.2 1.6-4 0-1.3-.3-2.6-1-3.7-.6-1-1.4-2-2.3-2.9l-4.3-3.5c-2.2-1.8-4-3.2-5-4.3-1.2-1.1-2.2-2.4-3-4-.9-1.4-1.3-3-1.3-5 0-3 1.3-5.6 3.7-7.4 2.5-1.9 5.6-2.8 9.1-2.8 2 0 3.7.2 5.3.7zM784.7 294a8.7 8.7 0 11-17.4 0 8.7 8.7 0 0117.4 0zM423.4 123.3h-11.2V112a1 1 0 10-2 0v11.3H399a1 1 0 000 2h11.2v11.1a1 1 0 002 0v-11.1h11.2a1 1 0 100-2z" fill="#fff"/><path d="M399 123.7a.6.6 0 000 1.2h11.6v11.5a.6.6 0 001.2 0V125h11.6a.6.6 0 000-1.2h-11.6V112a.6.6 0 00-1.2 0v11.7H399zm12.2 14.1c-.8 0-1.4-.6-1.4-1.4v-10.7H399a1.4 1.4 0 010-2.8h10.8v-11a1.4 1.4 0 012.8 0v11h10.8a1.4 1.4 0 010 2.8h-10.8v10.7c0 .8-.6 1.4-1.4 1.4M245.2 299.4l-142.7-111 .5-.6 142.7 111-.5.6zM171 115.5l-.7-.2L195 20.5l.8.2-24.8 94.8z" fill="#fff"/><path d="M111.9 293.2l-9.5-105 .7-.2 9.5 105.2h-.7z" fill="#fff"/><path d="M112.5 293.5l-.5-.6 85.6-80 .5.6-85.6 80zM245.8 299.3l-.7-.4 85.6-134.6.7.4-85.6 134.6zM17 223.7l-.3-.7 85.9-36 .3.6L17 223.7z" fill="#fff"/><path d="M245.4 298.7l-133.2-5.1v-.8l133.3 5.1v.8zM102.2 187.6l-.5-.6 68.7-71.9.5.6-68.7 71.9z" fill="#fff"/><path d="M245 299.2L195 20.6l.8-.1 50 278.6h-.7zM277.9 52.1v1.2c1.5 0 3 .2 4.4.6l.3-1.2c-1.2-.3-2.5-.5-3.8-.6h-.2-.7zm13.8 6.4l-.9.7a17 17 0 014 9.3l1.2-.1-.3-1.8v-.2-.1-.1-.1h-.1V66v-.1-.1-.1h-.1v-.1-.1-.1h-.1v-.1-.1-.1-.1h-.1v-.1-.1-.1h-.1v-.1-.1-.1h-.1v-.1-.1-.1h-.1V64v-.1h-.1v-.1-.2h-.1v-.2h-.1v-.1-.1-.1h-.1V63v-.1h-.1v-.1c-.8-1.6-1.7-3-2.8-4.3zm1.2 20a17 17 0 01-7.2 7l.5 1a18 18 0 002.3-1.4h.1l.1-.1h.1l.1-.2h.1l.1-.1h.1v-.1h.1v-.1h.1v-.1h.1l.1-.1.1-.1h.1V84h.1V84h.1v-.1h.1v-.1h.1v-.1h.1v-.1h.1v-.1h.1v-.1h.1v-.1h.1v-.1h.1V83h.1V83h.1v-.1h.1v-.1h.1v-.1h.1v-.1h.1v-.1h.1v-.1h.1v-.1h.1v-.1h.1V82 82h.1v-.1h.1v-.1h.1v-.1h.1v-.2h.1v-.1h.1v-.1h.1v-.1l.2-.3L294 79l-1-.6zM266.5 83l-.8.9c2 1.9 4.6 3.3 7.4 4H273.5v.1h.4v.1H274.2l1.4.3.2-1.2a17 17 0 01-9.2-4.2zm-5.6-19.2c-.4 1-.7 1.9-.9 2.9v.7h-.1v.7h-.1V69.3h-.1V72.3l.5 2.4 1.1-.3a17.1 17.1 0 01.7-10l-1.1-.5zm17-11.7h-1.3-.1-.1-.1l-.1.1h-.1-.1-.2-.4c-2.9.5-5.5 1.5-7.8 3.1l.6 1c2.9-2 6.2-3 9.7-3v-1.2z" fill="#fff"/><path d="M330 164L195 20.8l.6-.5 134.8 143.2-.5.5zM284.2 70H280v-4.4c0-.2-.2-.4-.4-.4s-.4.2-.4.4V70h-4.4a.4.4 0 100 .8h4.4v4.3a.4.4 0 10.8 0v-4.3h4.3a.4.4 0 000-.8z" fill="#fff"/><path d="M274.7 70.4h4.8v4.7-4.7h4.7-9.5zm4.8 5.5a.8.8 0 01-.8-.8v-3.9h-4a.8.8 0 010-1.6h4v-4a.8.8 0 011.6 0v4h4a.8.8 0 010 1.6h-4v4c0 .4-.4.7-.8.7zM198 213.6l-.3-.7 132.4-49.5.3.7L198 213.6z" fill="#fff"/><path fill-rule="evenodd" clip-rule="evenodd" d="M276.5 255a17.4 17.4 0 100-35 17.4 17.4 0 000 35zm-4-13.6a.8.8 0 001.2 0l2.8-2.8 2.8 2.8a.8.8 0 001-1.1l-2.7-2.8 2.8-2.8a.8.8 0 00-1.1-1.1l-2.8 2.8-2.9-2.8a.8.8 0 10-1 1l2.8 3-2.8 2.7c-.4.3-.4.8 0 1.1z" fill="#fff"/><path d="M244.3 298.5l-23-57.7.7-.3 23 57.7-.7.3zM232.3 134.4l-61.8-18.6.3-.8 61.7 18.6-.2.8z" fill="#fff"/><path fill-rule="evenodd" clip-rule="evenodd" d="M74.8 149.5A74.8 74.8 0 1074.8 0a74.8 74.8 0 000 149.5zm-18.4-61a17.4 17.4 0 100-34.8 17.4 17.4 0 000 34.9z" fill="#fff"/><path d="M61.1 70h-4.3v-4.4c0-.2-.2-.4-.4-.4s-.4.2-.4.4V70h-4.4c-.2 0-.4.2-.4.4s.2.4.4.4H56v4.3a.4.4 0 00.8 0v-4.3H61a.4.4 0 100-.8z" fill="#fff"/><path d="M51.6 70.4h4.8v4.7-4.7H61h-9.5zm4.8 5.5a.8.8 0 01-.8-.8v-3.9h-4a.8.8 0 010-1.6h4v-4a.8.8 0 011.6 0v4h4a.8.8 0 010 1.6h-4v4c0 .4-.4.7-.8.7M245.3 298.7l-228.5-75 .2-.7 228.6 75-.3.7zM331 164.1l-99.4-30 .2-.7 99.3 30-.2.7z" fill="#fff"/><path d="M21.2 223.4H17V219a.4.4 0 00-.8 0v4.4h-4.4a.4.4 0 100 .7h4.4v4.4a.4.4 0 00.8 0V224h4.3a.4.4 0 000-.7z" fill="#fff"/><path d="M11.7 223.8h4.8v4.7-4.8h4.7-9.5zm4.8 5.5a.8.8 0 01-.8-.8v-4h-4a.8.8 0 010-1.5h4v-4a.8.8 0 011.6 0v4h4a.8.8 0 010 1.5h-4v4c0 .4-.4.8-.8.8zM249.8 298.3h-4.3V294a.4.4 0 10-.8 0v4.4h-4.4a.4.4 0 100 .8h4.4v4.4a.4.4 0 10.8 0V299h4.3a.4.4 0 000-.8z" fill="#fff"/><path d="M240.3 298.7h4.8v4.8-4.8h4.7-9.5zm4.8 5.5a.8.8 0 01-.8-.7v-4h-4a.8.8 0 010-1.6h4v-4a.8.8 0 011.6 0v4h4a.8.8 0 010 1.6h-4v4c0 .4-.4.7-.8.7zM200.5 20.6h-4.3v-4.4a.4.4 0 10-.8 0v4.4H191a.4.4 0 100 .8h4.4v4.3a.4.4 0 10.8 0v-4.3h4.3a.4.4 0 100-.8z" fill="#fff"/><path d="M191 21h4.8v4.7V21h4.7-9.5zm4.8 5.5a.8.8 0 01-.8-.8v-4h-4a.8.8 0 010-1.5h4v-4a.8.8 0 011.6 0v4h4c.4 0 .7.3.7.8 0 .4-.3.7-.8.7h-4v4c0 .4-.3.8-.7.8M335.4 163.8H331v-4.4c0-.3-.2-.4-.4-.4s-.4.1-.4.4v4.4H326a.4.4 0 100 .7h4.3v4.4a.4.4 0 00.8 0v-4.4h4.4a.4.4 0 100-.7z" fill="#fff"/><path d="M325.9 164.1h4.7v4.8-4.8h4.8-9.5zm4.7 5.6a.8.8 0 01-.8-.8v-4h-4a.8.8 0 010-1.5h4v-4a.8.8 0 011.6 0v4h4a.8.8 0 010 1.5h-4v4c0 .4-.3.8-.8.8zM107.1 187.3h-4.4v-4.4a.4.4 0 10-.7 0v4.4h-4.4a.4.4 0 000 .8h4.4v4.3c0 .2.1.4.4.4.2 0 .3-.2.3-.4v-4.3h4.4a.4.4 0 000-.8z" fill="#fff"/><path d="M97.6 187.7h4.8v4.7-4.7h4.7-9.5zm4.8 5.5a.8.8 0 01-.8-.8v-4h-4a.8.8 0 010-1.5h4v-4a.8.8 0 011.5 0v4h4a.8.8 0 010 1.6h-4v3.9c0 .4-.3.8-.7.8zM202.2 213.2h-4.4v-4.4a.4.4 0 10-.7 0v4.4h-4.4a.4.4 0 100 .8h4.4v4.4a.4.4 0 10.7 0V214h4.4a.4.4 0 100-.8z" fill="#fff"/><path d="M192.7 213.6h4.8v4.8-4.8h4.7-9.5zm4.8 5.5a.8.8 0 01-.8-.7v-4h-4a.8.8 0 010-1.5h4v-4a.8.8 0 011.5 0v4h4a.8.8 0 010 1.5h-4v4c0 .4-.3.7-.7.7M117.4 293.2H113v-4.4c0-.2-.1-.4-.4-.4-.2 0-.3.2-.3.4v4.4h-4.4a.4.4 0 000 .8h4.4v4.3c0 .2.1.4.3.4.3 0 .4-.2.4-.4V294h4.4a.4.4 0 100-.8z" fill="#fff"/><path d="M107.9 293.6h4.7v4.7-4.7h4.8-9.5zm4.7 5.5a.8.8 0 01-.7-.8v-4h-4a.8.8 0 010-1.5h4v-4c0-.4.3-.8.7-.8.5 0 .8.4.8.8v4h4a.8.8 0 010 1.6h-4v4c0 .3-.3.7-.8.7zM221.4 241.3l-50.3-125.8.7-.3L222.1 241l-.7.3z" fill="#fff"/><path d="M175.8 115.4h-4.4V111c0-.2-.1-.4-.4-.4-.2 0-.3.2-.3.4v4.4h-4.4c-.2 0-.4.2-.4.4s.2.4.4.4h4.4v4.3a.4.4 0 00.7 0v-4.3h4.4a.4.4 0 000-.8z" fill="#fff"/><path d="M166.3 115.8h4.7v4.7-4.7h4.8-9.5zm4.7 5.5a.8.8 0 01-.7-.8v-4h-4a.8.8 0 010-1.5h4v-4a.8.8 0 011.5 0v4h4a.8.8 0 010 1.6h-4v3.9c0 .4-.3.8-.8.8" fill="#fff"/></svg>