<?xml version="1.0" encoding="utf-8"?>
<!-- Generator: Adobe Illustrator 26.0.3, SVG Export Plug-In . SVG Version: 6.00 Build 0)  -->
<svg version="1.1" id="Calque_1" xmlns="http://www.w3.org/2000/svg" xmlns:xlink="http://www.w3.org/1999/xlink" x="0px" y="0px"
	 viewBox="0 0 728 150" style="enable-background:new 0 0 728 150;" xml:space="preserve">
<style type="text/css">
	.st0{fill:#FF7657;}
</style>
<g>
	<path class="st0" d="M194.57,71.7c0-1.08,0.88-1.86,1.86-1.86h3.62c0.88,0,1.48,0.49,1.67,1.07l1.37,3.72
		c1.67-1.86,6.17-5.78,13.11-5.78c5.59,0,9.5,2.16,12.73,6.07c1.67-1.76,6.75-6.07,13.8-6.07c12.53,0,17.13,9.3,17.13,19.58v18.7
		c0,0.98-0.79,1.86-1.86,1.86h-7.93c-1.07,0-1.86-0.88-1.86-1.86V87.75c0-5.1-2.44-8.33-7.34-8.33c-5.68,0-8.23,4.11-8.23,4.11
		s0.1,1.95,0.1,3.72v19.88c0,0.98-0.88,1.86-1.86,1.86h-7.34c-1.08,0-1.86-0.88-1.86-1.86V87.75c0-5.1-2.25-8.33-7.24-8.33
		c-4.9,0-7.25,3.53-8.23,6.17v21.54c0,0.98-0.88,1.86-1.86,1.86h-7.93c-0.98,0-1.86-0.88-1.86-1.86V71.7z"/>
	<path class="st0" d="M265.23,72.38c-0.59-1.27,0.19-2.54,1.66-2.54h8.81c0.88,0,1.37,0.49,1.67,1.07l9.89,22.12h0.1l9.79-22.12
		c0.49-0.98,1.18-1.07,2.35-1.07h7.84c1.56,0,2.35,1.26,1.67,2.54l-29.96,64.81c-0.3,0.58-0.88,1.18-1.67,1.18h-8.42
		c-1.47,0-2.35-1.27-1.67-2.64l13.9-29.47L265.23,72.38z"/>
	<path class="st0" d="M315.63,42.32c0-0.98,0.88-1.86,1.86-1.86h8.23c0.98,0,1.86,0.88,1.86,1.86v64.81c0,0.98-0.88,1.86-1.86,1.86
		h-8.23c-0.98,0-1.86-0.88-1.86-1.86V42.32z"/>
	<path class="st0" d="M356.34,68.85c11.07,0,20.07,9.4,20.07,20.46c0,11.26-9,20.65-20.07,20.65s-20.07-9.4-20.07-20.65
		C336.27,78.25,345.27,68.85,356.34,68.85z M356.34,99.4c5.19,0,9.4-4.5,9.4-10.09c0-5.48-4.21-9.89-9.4-9.89
		c-5.29,0-9.4,4.41-9.4,9.89C346.94,94.9,351.05,99.4,356.34,99.4z"/>
	<path class="st0" d="M384.23,49.17c0-3.72,2.94-6.75,6.66-6.75c3.82,0,6.85,3.04,6.85,6.75c0,3.73-3.03,6.75-6.85,6.75
		C387.17,55.93,384.23,52.9,384.23,49.17z M385.11,71.7c0-1.08,0.88-1.86,1.86-1.86h8.12c0.99,0,1.87,0.78,1.87,1.86v35.44
		c0,0.98-0.88,1.86-1.87,1.86h-8.12c-0.98,0-1.86-0.88-1.86-1.86V71.7z"/>
	<path class="st0" d="M408.69,71.7c0-1.08,0.88-1.86,1.86-1.86h3.73c0.88,0,1.47,0.49,1.76,1.26l1.37,3.82
		c1.37-1.96,4.99-6.07,11.05-6.07c4.61,0,8.72,1.48,7.54,3.92l-3.62,6.36c-0.49,0.88-1.47,1.27-2.25,0.88
		c-0.3-0.1-1.76-0.58-2.84-0.58c-3.92,0-6.27,2.64-6.96,4.01v23.69c0,1.37-0.88,1.86-2.25,1.86h-7.54c-0.98,0-1.86-0.88-1.86-1.86
		V71.7z"/>
	<path class="st0" d="M458.8,68.85c10.09,0,18.31,7.64,18.31,18.21c0,0.69-0.1,1.95-0.19,2.64c-0.11,0.98-0.99,1.67-1.87,1.67
		h-25.06c0.3,4.01,3.73,8.52,9.41,8.52c3.03,0,5.87-1.18,7.64-2.45c0.98-0.58,1.86-0.79,2.54,0l4.01,4.6
		c0.69,0.69,0.88,1.76-0.1,2.55c-3.23,3.04-8.22,5.38-14.59,5.38c-11.74,0-20.06-9.3-20.06-20.56
		C438.84,78.35,447.15,68.85,458.8,68.85z M465.66,84.51c-0.3-3.62-3.43-6.66-7.15-6.66c-3.92,0-7.15,2.94-7.65,6.66H465.66z"/>
	<path class="st0" d="M480.14,72.18c-0.59-1.27-0.11-2.35,1.37-2.35h8.52c0.98,0,1.47,0.49,1.76,1.07l7.92,18.21c0.11,0,0.2,0,0.2,0
		l8.42-18.21c0.49-0.98,1.26-1.07,2.35-1.07h7.64c1.47,0,2.05,1.07,1.37,2.35l-17.91,36.81c-0.3,0.49-0.79,0.98-1.67,0.98h-0.49
		c-0.88,0-1.37-0.49-1.67-0.98L480.14,72.18z"/>
	<path class="st0" d="M539.06,84.23c3.92,0,7.15,1.07,7.15,1.07c0.1-4.99-1.48-6.75-5.1-6.75s-8.71,0.79-10.96,1.47
		c-1.37,0.39-2.06-0.49-2.25-1.76l-0.88-5.09c-0.3-1.47,0.49-2.16,1.37-2.45c0.79-0.29,7.05-1.86,13.32-1.86
		c12.23,0,15.07,6.37,15.07,17.03v21.25c0,0.98-0.88,1.86-1.86,1.86h-3.53c-0.68,0-1.17-0.3-1.66-1.37l-1.18-2.64
		c-2.25,2.06-5.87,4.99-11.95,4.99c-7.83,0-13.21-5.09-13.21-13.41C523.4,89.61,529.07,84.23,539.06,84.23z M539.25,101.65
		c3.13,0,6.17-2.64,6.75-3.82v-5.38c0,0-2.64-1.18-5.48-1.18c-3.81,0-6.36,2.16-6.36,5.29C534.17,99.5,536.22,101.65,539.25,101.65z
		"/>
	<path class="st0" d="M568.02,42.32c0-0.98,0.88-1.86,1.86-1.86h8.23c0.98,0,1.86,0.88,1.86,1.86v64.81c0,0.98-0.88,1.86-1.86,1.86
		h-8.23c-0.98,0-1.86-0.88-1.86-1.86V42.32z"/>
	<path class="st0" d="M591.7,42.32c0-0.98,0.88-1.86,1.86-1.86h8.23c0.98,0,1.86,0.88,1.86,1.86v64.81c0,0.98-0.88,1.86-1.86,1.86
		h-8.23c-0.98,0-1.86-0.88-1.86-1.86V42.32z"/>
	<path class="st0" d="M632.41,68.85c10.09,0,18.31,7.64,18.31,18.21c0,0.69-0.1,1.95-0.19,2.64c-0.11,0.98-0.99,1.67-1.86,1.67
		h-25.06c0.29,4.01,3.72,8.52,9.39,8.52c3.04,0,5.88-1.18,7.65-2.45c0.98-0.58,1.86-0.79,2.54,0l4.01,4.6
		c0.69,0.69,0.88,1.76-0.1,2.55c-3.23,3.04-8.22,5.38-14.59,5.38c-11.74,0-20.06-9.3-20.06-20.56
		C612.45,78.35,620.77,68.85,632.41,68.85z M639.26,84.51c-0.29-3.62-3.42-6.66-7.14-6.66c-3.92,0-7.15,2.94-7.65,6.66H639.26z"/>
	<path class="st0" d="M653.84,72.38c-0.59-1.27,0.19-2.54,1.66-2.54h8.81c0.88,0,1.37,0.49,1.67,1.07l9.89,22.12h0.1l9.79-22.12
		c0.49-0.98,1.18-1.07,2.35-1.07h7.84c1.56,0,2.35,1.26,1.67,2.54l-29.96,64.81c-0.3,0.58-0.88,1.18-1.67,1.18h-8.42
		c-1.47,0-2.35-1.27-1.67-2.64l13.9-29.47L653.84,72.38z"/>
</g>
<g>
	<g>
		<g>
			<g>
				<circle class="st0" cx="41.18" cy="50.46" r="9.07"/>
				<circle class="st0" cx="142.21" cy="50.71" r="9.07"/>
			</g>
			<path class="st0" d="M91.7,90.18"/>
		</g>
		<path class="st0" d="M32.11,70v36.26c0,1.4,1.14,2.54,2.54,2.54H70.9C70.9,87.36,53.53,70,32.11,70z"/>
		<path class="st0" d="M151.29,70v36.26c0,1.4-1.14,2.54-2.54,2.54h-36.26C112.49,87.36,129.86,70,151.29,70z"/>
		<path class="st0" d="M148.77,137.78H34.63c-1.39,0-2.52-1.13-2.52-2.52V124.2c0-1.39,1.13-2.52,2.52-2.52h114.13
			c1.39,0,2.52,1.13,2.52,2.52v11.06C151.29,136.65,150.15,137.78,148.77,137.78z"/>
	</g>
	<circle class="st0" cx="91.7" cy="24.98" r="9.07"/>
	<path class="st0" d="M111.29,71.44L93.52,90.92c-1.01,1.11-2.75,1.1-3.75-0.01L72.1,71.35c-0.88-0.97-0.87-2.45,0.02-3.42
		l17.83-19.37c1.01-1.1,2.74-1.09,3.74,0.02l17.61,19.45C112.17,69,112.17,70.48,111.29,71.44z"/>
</g>
</svg>
